<?xml version="1.0" encoding="UTF-8"?>
<svg id="Layer_4" data-name="Layer 4" xmlns="http://www.w3.org/2000/svg" viewBox="0 0 1920 527.57">
  <defs>
    <style>
      .cls-1, .cls-2 {
        opacity: .84;
      }

      .cls-1, .cls-3 {
        fill: #a9e3f7;
        stroke-width: 0px;
      }
    </style>
  </defs>
  <rect class="cls-1" x="66.08" y="288.71" width="46.68" height="46.68" rx="13.54" ry="13.54" transform="translate(23.83 -5.86) rotate(4.33)"/>
  <rect class="cls-1" x="-50.44" y="467.31" width="78.41" height="78.41" rx="12" ry="12" transform="translate(-166.07 24.12) rotate(-19.07)"/>
  <rect class="cls-1" x="-30.17" y="336.59" width="95.86" height="95.86" rx="12" ry="12" transform="translate(-331.85 223.45) rotate(-62.62)"/>
  <rect class="cls-1" x="58.43" y="467.06" width="91.28" height="91.28" rx="12" ry="12" transform="translate(393.01 76.58) rotate(45)"/>
  <rect class="cls-1" x="226.34" y="360.74" width="36.04" height="36.04" rx="12" ry="12" transform="translate(339.4 -61.85) rotate(45)"/>
  <g class="cls-2">
    <path class="cls-3" d="m71.81,453.24l.93,2c5.5,11.79.31,25.89-11.56,31.42l-37.79,17.62c-11.87,5.53-26,.45-31.5-11.34l-.93-2c-5.49-11.79-.31-25.89,11.56-31.42l37.79-17.62c11.87-5.53,26-.44,31.5,11.34Z"/>
  </g>
  <g class="cls-2">
    <path class="cls-3" d="m171.9,372.58l.93,2c5.5,11.79.31,25.89-11.56,31.42l-37.79,17.62c-11.87,5.53-26,.45-31.5-11.34l-.93-2c-5.49-11.79-.31-25.89,11.56-31.42l37.79-17.62c11.87-5.53,26-.44,31.5,11.34Z"/>
  </g>
  <g class="cls-2">
    <path class="cls-3" d="m214.75,468.77l-.62,1.37c-3.65,8.11-13.26,11.71-21.42,8.03l-25.98-11.7c-8.16-3.68-11.83-13.26-8.18-21.37l.62-1.37c3.65-8.1,13.26-11.71,21.42-8.03l25.98,11.7c8.16,3.68,11.83,13.26,8.18,21.37Z"/>
  </g>
  <rect class="cls-1" x="1794.52" y="288.56" width="46.68" height="46.68" rx="13.54" ry="13.54" transform="translate(3654.09 485.61) rotate(175.67)"/>
  <rect class="cls-1" x="1879.31" y="467.16" width="78.41" height="78.41" rx="12" ry="12" transform="translate(3566.38 1611.64) rotate(-160.93)"/>
  <rect class="cls-1" x="1841.59" y="336.44" width="95.86" height="95.86" rx="12" ry="12" transform="translate(2417.18 2239) rotate(-117.38)"/>
  <rect class="cls-1" x="1757.57" y="466.91" width="91.28" height="91.28" rx="12" ry="12" transform="translate(3440.71 -400.08) rotate(135)"/>
  <rect class="cls-1" x="1644.9" y="360.6" width="36.04" height="36.04" rx="12" ry="12" transform="translate(3106.51 -529.51) rotate(135)"/>
  <g class="cls-2">
    <path class="cls-3" d="m1835.47,453.1l-.93,2c-5.5,11.79-.31,25.89,11.56,31.42l37.79,17.62c11.87,5.53,26,.45,31.5-11.34l.93-2c5.49-11.79.31-25.89-11.56-31.42l-37.79-17.62c-11.87-5.53-26-.44-31.5,11.34Z"/>
  </g>
  <g class="cls-2">
    <path class="cls-3" d="m1735.38,372.44l-.93,2c-5.5,11.79-.31,25.89,11.56,31.42l37.79,17.62c11.87,5.53,26,.45,31.5-11.34l.93-2c5.49-11.79.31-25.89-11.56-31.42l-37.79-17.62c-11.87-5.53-26-.44-31.5,11.34Z"/>
  </g>
  <g class="cls-2">
    <path class="cls-3" d="m1692.54,468.62l.62,1.37c3.65,8.11,13.26,11.71,21.42,8.03l25.98-11.7c8.16-3.68,11.83-13.26,8.18-21.37l-.62-1.37c-3.65-8.1-13.26-11.71-21.42-8.03l-25.98,11.7c-8.16,3.68-11.83,13.26-8.18,21.37Z"/>
  </g>
</svg>