<?xml version="1.0" encoding="UTF-8"?>
<svg id="Layer_1" data-name="Layer 1" xmlns="http://www.w3.org/2000/svg" viewBox="0 0 198.36 247.83">
  <defs>
    <style>
      .cls-1 {
        fill: #004f86;
        stroke-width: 0px;
      }
    </style>
  </defs>
  <circle class="cls-1" cx="121.41" cy="98.95" r="11.01"/>
  <circle class="cls-1" cx="77.43" cy="98.95" r="11.01"/>
  <path class="cls-1" d="m145.24,153.42H52.72c-29.07,0-52.72-23.5-52.72-52.37v-4.91c0-28.88,23.65-52.37,52.72-52.37h92.52c29.07,0,52.72,23.5,52.72,52.37v4.91c0,28.88-23.65,52.37-52.72,52.37ZM53.59,65.56c-17.48,0-31.71,13.77-31.71,30.69v4.69c0,16.92,14.23,30.69,31.71,30.69h90.79c17.48,0,31.71-13.77,31.71-30.69v-4.69c0-16.92-14.23-30.69-31.71-30.69H53.59Z"/>
  <g>
    <path class="cls-1" d="m99.38,60.15c-4.72,0-8.55-3.83-8.55-8.55v-28.7c0-4.72,3.83-8.55,8.55-8.55s8.55,3.83,8.55,8.55v28.7c0,4.72-3.83,8.55-8.55,8.55Z"/>
    <path class="cls-1" d="m99.39,31.45c-2.95,0-5.83-1.53-7.41-4.28-2.36-4.09-.96-9.32,3.13-11.68L119.96,1.15c4.09-2.36,9.32-.96,11.68,3.13,2.36,4.09.96,9.32-3.13,11.68l-24.85,14.35c-1.35.78-2.82,1.15-4.27,1.15Z"/>
    <path class="cls-1" d="m99.37,31.45c-1.45,0-2.92-.37-4.27-1.15l-24.85-14.35c-4.09-2.36-5.49-7.59-3.13-11.68,2.36-4.09,7.59-5.49,11.68-3.13l24.85,14.35c4.09,2.36,5.49,7.59,3.13,11.68-1.58,2.74-4.46,4.28-7.41,4.28Z"/>
  </g>
  <path class="cls-1" d="m54.19,219.16h-8.46v-32.44l-14.88,30.1c-.37.77-.88,1.35-1.53,1.74-.66.4-1.36.59-2.11.59s-1.42-.2-2.05-.59c-.63-.4-1.13-.98-1.5-1.74l-14.94-30.1v32.44H.32v-49.84c0-1.11.29-2.1.86-2.97.57-.87,1.32-1.45,2.24-1.74.45-.12.9-.17,1.36-.13.45.04.89.15,1.31.33.42.19.8.45,1.15.78.34.33.63.74.87,1.21l19.11,38.19,19.11-38.19c.49-.94,1.18-1.61,2.05-2,.87-.4,1.78-.46,2.73-.19.9.3,1.65.88,2.23,1.74.58.87.87,1.86.87,2.97v49.84Z"/>
  <path class="cls-1" d="m125.83,182.75c0,2.26-.28,4.29-.83,6.07-.55,1.78-1.29,3.35-2.19,4.71-.91,1.36-1.97,2.53-3.19,3.49-1.22.97-2.48,1.76-3.78,2.38-1.3.62-2.63,1.08-3.97,1.35-1.34.28-2.6.42-3.78.42h-3.87v17.97h-9.67v-17.97h-3.84c-1.18,0-2.44-.14-3.78-.42-1.34-.28-2.67-.73-3.98-1.35-1.32-.62-2.58-1.42-3.78-2.38-1.21-.97-2.27-2.13-3.19-3.49-.92-1.36-1.66-2.94-2.21-4.73-.55-1.79-.83-3.81-.83-6.05v-18.32h9.59v18.32c0,1.3.2,2.46.59,3.49.39,1.03.95,1.91,1.66,2.65.71.74,1.58,1.3,2.6,1.7,1.02.39,2.16.59,3.41.59h17.3c.91-.15,1.84-.35,2.8-.59.96-.24,1.83-.65,2.62-1.24.79-.58,1.44-1.4,1.96-2.44.52-1.04.77-2.43.77-4.16v-18.32h9.59v18.32Z"/>
  <path class="cls-1" d="m196.15,182.83c0,2.26-.26,4.29-.78,6.07-.52,1.78-1.23,3.35-2.12,4.71-.89,1.36-1.92,2.53-3.08,3.49-1.16.97-2.38,1.76-3.65,2.38-1.27.62-2.56,1.08-3.85,1.35-1.3.28-2.51.42-3.65.42l19.36,17.9h-14.33l-19.32-17.9h-6.67v-9.92h20.96c1.16-.1,2.23-.36,3.19-.78.96-.42,1.79-.99,2.5-1.7.7-.71,1.24-1.57,1.62-2.58.38-1,.57-2.16.57-3.45v-6.26c0-.56-.07-.99-.2-1.28-.13-.29-.3-.51-.5-.65-.2-.14-.42-.22-.64-.25-.23-.03-.43-.04-.62-.04h-30.59v44.8h-9.27v-49.72c0-.69.12-1.34.36-1.95.24-.61.56-1.14.98-1.6s.91-.81,1.48-1.07c.57-.25,1.19-.38,1.85-.38h35.19c2.07,0,3.81.4,5.24,1.2,1.43.8,2.58,1.81,3.48,3.01.89,1.21,1.53,2.51,1.93,3.91.39,1.4.59,2.71.59,3.93v6.33Z"/>
  <g>
    <path class="cls-1" d="m27.95,247.59h-3.13v-4.24h-11v4.24h-3.13v-8.63c0-1.26.22-2.42.65-3.48.43-1.06,1.04-1.97,1.81-2.73s1.68-1.36,2.73-1.78c1.05-.43,2.2-.64,3.44-.64h7.05c.22,0,.42.04.61.12.19.08.36.19.51.34s.26.31.34.51c.08.19.12.4.12.61v15.68Zm-14.13-7.37h11v-6.76h-5.5c-.1,0-.3.01-.61.04-.31.03-.67.1-1.07.21-.41.11-.83.28-1.28.52-.45.23-.86.55-1.24.96-.38.41-.69.92-.93,1.53-.24.61-.37,1.36-.37,2.23v1.26Z"/>
    <path class="cls-1" d="m48.17,242.51c0,.62-.08,1.17-.23,1.67-.16.49-.36.93-.62,1.31-.26.38-.56.7-.9.96-.35.26-.7.48-1.07.65s-.74.29-1.13.37c-.38.08-.74.12-1.08.12h-12.07v-3.13h12.07c.6,0,1.07-.18,1.4-.53.33-.35.5-.83.5-1.42,0-.29-.04-.55-.13-.79-.09-.24-.21-.45-.38-.63-.16-.18-.37-.31-.6-.41s-.5-.14-.79-.14h-7.2c-.51,0-1.05-.09-1.64-.27s-1.13-.47-1.63-.87c-.5-.4-.92-.93-1.25-1.58-.33-.65-.5-1.44-.5-2.38s.17-1.73.5-2.38c.33-.65.75-1.17,1.25-1.58.5-.41,1.04-.7,1.63-.88.59-.18,1.13-.27,1.64-.27h10.65v3.13h-10.65c-.59,0-1.06.18-1.39.54-.33.36-.5.84-.5,1.43s.17,1.08.5,1.43c.33.35.8.52,1.39.52h7.22c.34,0,.69.05,1.07.14.38.08.75.21,1.13.39.37.18.73.4,1.06.67s.64.59.9.97c.26.38.47.81.62,1.3.15.49.23,1.04.23,1.66Z"/>
    <path class="cls-1" d="m67.35,242.51c0,.62-.08,1.17-.23,1.67-.16.49-.36.93-.62,1.31-.26.38-.56.7-.9.96-.35.26-.7.48-1.07.65s-.74.29-1.13.37c-.38.08-.74.12-1.08.12h-12.07v-3.13h12.07c.6,0,1.07-.18,1.4-.53.33-.35.5-.83.5-1.42,0-.29-.04-.55-.13-.79-.09-.24-.21-.45-.38-.63-.16-.18-.37-.31-.6-.41s-.5-.14-.79-.14h-7.2c-.51,0-1.05-.09-1.64-.27s-1.13-.47-1.63-.87c-.5-.4-.92-.93-1.25-1.58-.33-.65-.5-1.44-.5-2.38s.17-1.73.5-2.38c.33-.65.75-1.17,1.25-1.58.5-.41,1.04-.7,1.63-.88.59-.18,1.13-.27,1.64-.27h10.65v3.13h-10.65c-.59,0-1.06.18-1.39.54-.33.36-.5.84-.5,1.43s.17,1.08.5,1.43c.33.35.8.52,1.39.52h7.22c.34,0,.69.05,1.07.14.38.08.75.21,1.13.39.37.18.73.4,1.06.67s.64.59.9.97c.26.38.47.81.62,1.3.15.49.23,1.04.23,1.66Z"/>
    <path class="cls-1" d="m73.1,247.59h-3.13v-17.26h3.13v17.26Z"/>
    <path class="cls-1" d="m93.35,242.51c0,.62-.08,1.17-.23,1.67-.16.49-.36.93-.62,1.31-.26.38-.56.7-.9.96-.35.26-.7.48-1.07.65s-.74.29-1.13.37c-.38.08-.74.12-1.08.12h-12.07v-3.13h12.07c.6,0,1.07-.18,1.4-.53.33-.35.5-.83.5-1.42,0-.29-.04-.55-.13-.79-.09-.24-.21-.45-.38-.63-.16-.18-.37-.31-.6-.41s-.5-.14-.79-.14h-7.2c-.51,0-1.05-.09-1.64-.27s-1.13-.47-1.63-.87c-.5-.4-.92-.93-1.25-1.58-.33-.65-.5-1.44-.5-2.38s.17-1.73.5-2.38c.33-.65.75-1.17,1.25-1.58.5-.41,1.04-.7,1.63-.88.59-.18,1.13-.27,1.64-.27h10.65v3.13h-10.65c-.59,0-1.06.18-1.39.54-.33.36-.5.84-.5,1.43s.17,1.08.5,1.43c.33.35.8.52,1.39.52h7.22c.34,0,.69.05,1.07.14.38.08.75.21,1.13.39.37.18.73.4,1.06.67s.64.59.9.97c.26.38.47.81.62,1.3.15.49.23,1.04.23,1.66Z"/>
    <path class="cls-1" d="m111.36,233.46h-6.9v14.13h-3.13v-14.13h-6.91v-3.13h16.93v3.13Z"/>
    <path class="cls-1" d="m129.99,247.59h-3.13v-4.24h-11v4.24h-3.13v-8.63c0-1.26.22-2.42.65-3.48.43-1.06,1.04-1.97,1.81-2.73.77-.76,1.68-1.36,2.73-1.78,1.05-.43,2.2-.64,3.44-.64h7.05c.22,0,.42.04.61.12.19.08.36.19.51.34s.26.31.34.51c.08.19.12.4.12.61v15.68Zm-14.13-7.37h11v-6.76h-5.5c-.1,0-.3.01-.61.04-.31.03-.67.1-1.07.21-.41.11-.83.28-1.28.52-.45.23-.86.55-1.24.96-.38.41-.69.92-.93,1.53-.24.61-.37,1.36-.37,2.23v1.26Z"/>
    <path class="cls-1" d="m150.87,246.25c0,.22-.04.43-.13.63-.08.19-.2.36-.34.5-.14.14-.31.25-.5.33-.19.08-.4.12-.61.12-.19,0-.39-.04-.58-.11s-.37-.19-.52-.35l-11.43-11.94v12.15h-3.13v-15.92c0-.32.09-.61.27-.87.18-.26.41-.46.69-.58.3-.12.6-.15.91-.09.31.06.58.21.81.44l11.43,11.93v-12.15h3.13v15.92Z"/>
    <path class="cls-1" d="m169.96,247.59h-11.29c-.29,0-.6-.03-.93-.1s-.66-.17-.99-.32c-.32-.14-.64-.33-.93-.56-.3-.23-.56-.51-.79-.83-.23-.33-.41-.7-.55-1.13-.14-.43-.2-.91-.2-1.45v-8.47c0-.29.03-.6.1-.93.07-.33.17-.66.32-.99s.33-.64.57-.93c.23-.3.51-.56.84-.79.33-.23.7-.41,1.13-.55.43-.14.91-.2,1.44-.2h11.29v3.13h-11.29c-.41,0-.72.11-.94.33s-.32.54-.32.96v8.45c0,.4.11.71.33.93.22.22.53.33.93.33h11.29v3.13Z"/>
    <path class="cls-1" d="m188.51,247.59h-11.29c-.43,0-.91-.08-1.42-.23-.51-.15-.99-.4-1.43-.75-.44-.35-.8-.8-1.1-1.36-.29-.56-.44-1.24-.44-2.05v-11.29c0-.22.04-.42.12-.61.08-.19.19-.36.33-.51s.31-.26.5-.34c.19-.08.4-.12.63-.12h14.09v3.13h-12.54v9.74c0,.41.11.72.33.94.22.22.53.33.95.33h11.26v3.13Zm-1.41-7.05h-9.88v-3.15h9.88v3.15Z"/>
  </g>
</svg>