<?xml version="1.0" encoding="UTF-8"?>
<svg id="Layer_1" data-name="Layer 1" xmlns="http://www.w3.org/2000/svg" viewBox="0 0 199.64 65.03">
  <defs>
    <style>
      .cls-1 {
        fill: #005086;
      }
    </style>
  </defs>
  <g>
    <circle class="cls-1" cx="51.35" cy="41.85" r="4.66"/>
    <circle class="cls-1" cx="32.75" cy="41.85" r="4.66"/>
    <path class="cls-1" d="M61.43,64.89H22.3c-12.29,0-22.3-9.94-22.3-22.15v-2.07c0-12.21,10-22.15,22.3-22.15h39.13c12.29,0,22.3,9.94,22.3,22.15v2.07c0,12.21-10,22.15-22.3,22.15ZM22.66,27.73c-7.4,0-13.41,5.82-13.41,12.98v1.98c0,7.16,6.02,12.98,13.41,12.98h38.4c7.4,0,13.41-5.82,13.41-12.98v-1.98c0-7.16-6.02-12.98-13.41-12.98H22.66Z"/>
    <g>
      <path class="cls-1" d="M42.03,25.44c-2,0-3.62-1.62-3.62-3.62v-12.14c0-2,1.62-3.62,3.62-3.62s3.62,1.62,3.62,3.62v12.14c0,2-1.62,3.62-3.62,3.62Z"/>
      <path class="cls-1" d="M42.04,13.3c-1.25,0-2.47-.65-3.14-1.81-1-1.73-.41-3.94,1.32-4.94L50.74.48c1.73-1,3.94-.41,4.94,1.32,1,1.73.41,3.94-1.32,4.94l-10.51,6.07c-.57.33-1.19.49-1.8.49Z"/>
      <path class="cls-1" d="M42.03,13.3c-.61,0-1.23-.16-1.8-.49l-10.51-6.07c-1.73-1-2.32-3.21-1.32-4.94,1-1.73,3.21-2.32,4.94-1.32l10.51,6.07c1.73,1,2.32,3.21,1.32,4.94-.67,1.16-1.89,1.81-3.14,1.81Z"/>
    </g>
  </g>
  <g>
    <path class="cls-1" d="M119.21,49.04h-4.72v-18.09l-8.3,16.79c-.2.43-.49.75-.85.97-.37.22-.76.33-1.18.33s-.79-.11-1.14-.33c-.35-.22-.63-.54-.84-.97l-8.34-16.79v18.09h-4.68v-27.8c0-.62.16-1.17.48-1.66.32-.48.73-.81,1.25-.97.25-.07.5-.09.76-.07.25.02.5.08.73.19.23.1.45.25.64.43.19.19.35.41.49.67l10.66,21.3,10.66-21.3c.28-.52.66-.9,1.14-1.12.49-.22.99-.26,1.52-.1.5.17.92.49,1.24.97.32.48.49,1.04.49,1.66v27.8Z"/>
    <path class="cls-1" d="M159.18,28.73c0,1.26-.15,2.39-.46,3.38-.31.99-.72,1.87-1.22,2.63-.51.76-1.1,1.41-1.78,1.95-.68.54-1.38.98-2.11,1.33-.73.35-1.46.6-2.21.76-.75.16-1.45.23-2.11.23h-2.16v10.03h-5.39v-10.03h-2.14c-.66,0-1.36-.08-2.11-.23-.75-.16-1.49-.41-2.22-.76-.73-.35-1.44-.79-2.11-1.33-.67-.54-1.27-1.19-1.78-1.95-.51-.76-.93-1.64-1.23-2.64-.31-1-.46-2.13-.46-3.37v-10.22h5.35v10.22c0,.72.11,1.37.33,1.95.22.57.53,1.07.93,1.48.4.41.88.73,1.45.95.57.22,1.2.33,1.9.33h9.65c.51-.09,1.03-.19,1.56-.33.54-.13,1.02-.37,1.46-.69.44-.33.8-.78,1.09-1.36.29-.58.43-1.36.43-2.32v-10.22h5.35v10.22Z"/>
    <path class="cls-1" d="M198.4,28.77c0,1.26-.15,2.39-.44,3.38-.29.99-.69,1.87-1.18,2.63-.5.76-1.07,1.41-1.72,1.95-.65.54-1.33.98-2.04,1.33-.71.35-1.43.6-2.15.76-.72.16-1.4.23-2.04.23l10.8,9.98h-8l-10.78-9.98h-3.72v-5.53h11.69c.65-.06,1.24-.2,1.78-.44.54-.23,1-.55,1.39-.95.39-.4.69-.88.91-1.44.21-.56.32-1.2.32-1.93v-3.49c0-.31-.04-.55-.11-.71-.07-.16-.17-.28-.28-.36-.11-.08-.23-.12-.36-.14-.13-.01-.24-.02-.35-.02h-17.06v24.99h-5.17v-27.74c0-.38.07-.74.2-1.09.13-.34.31-.64.55-.89s.51-.45.83-.6c.32-.14.66-.21,1.03-.21h19.63c1.15,0,2.13.22,2.92.67.8.45,1.44,1.01,1.94,1.68.5.67.86,1.4,1.07,2.18.22.78.33,1.51.33,2.19v3.53Z"/>
    <g>
      <path class="cls-1" d="M104.58,64.9h-1.75v-2.36h-6.14v2.36h-1.75v-4.81c0-.7.12-1.35.36-1.94.24-.59.58-1.1,1.01-1.52s.94-.76,1.52-.99c.59-.24,1.23-.36,1.92-.36h3.93c.12,0,.23.02.34.07.11.04.2.11.28.19s.14.17.19.28c.04.11.07.22.07.34v8.75ZM96.7,60.79h6.14v-3.77h-3.07c-.05,0-.17,0-.34.02-.17.02-.37.05-.6.12-.23.06-.46.16-.71.29-.25.13-.48.31-.69.54-.21.23-.38.51-.52.86-.14.34-.2.76-.2,1.25v.7Z"/>
      <path class="cls-1" d="M115.85,62.06c0,.34-.04.65-.13.93-.09.28-.2.52-.35.73-.14.21-.31.39-.5.54-.19.15-.39.27-.6.36s-.42.16-.63.21c-.21.04-.41.07-.6.07h-6.73v-1.75h6.73c.34,0,.6-.1.78-.3.19-.2.28-.46.28-.79,0-.16-.02-.31-.07-.44-.05-.13-.12-.25-.21-.35-.09-.1-.2-.17-.34-.23s-.28-.08-.44-.08h-4.01c-.28,0-.59-.05-.91-.15s-.63-.26-.91-.49c-.28-.22-.51-.52-.7-.88-.19-.36-.28-.81-.28-1.33s.09-.97.28-1.33c.19-.36.42-.65.7-.88.28-.23.58-.39.91-.49.33-.1.63-.15.91-.15h5.94v1.75h-5.94c-.33,0-.59.1-.78.3-.19.2-.28.47-.28.8s.09.6.28.8c.19.19.44.29.78.29h4.03c.19,0,.39.03.6.08.21.05.42.12.63.22.21.1.41.22.59.37s.35.33.5.54c.15.21.26.45.35.72.08.27.13.58.13.93Z"/>
      <path class="cls-1" d="M126.56,62.06c0,.34-.04.65-.13.93-.09.28-.2.52-.35.73-.14.21-.31.39-.5.54-.19.15-.39.27-.6.36s-.42.16-.63.21c-.21.04-.41.07-.6.07h-6.73v-1.75h6.73c.34,0,.6-.1.78-.3.19-.2.28-.46.28-.79,0-.16-.02-.31-.07-.44-.05-.13-.12-.25-.21-.35-.09-.1-.2-.17-.34-.23s-.28-.08-.44-.08h-4.01c-.28,0-.59-.05-.91-.15s-.63-.26-.91-.49c-.28-.22-.51-.52-.7-.88-.19-.36-.28-.81-.28-1.33s.09-.97.28-1.33c.19-.36.42-.65.7-.88.28-.23.58-.39.91-.49.33-.1.63-.15.91-.15h5.94v1.75h-5.94c-.33,0-.59.1-.78.3-.19.2-.28.47-.28.8s.09.6.28.8c.19.19.44.29.78.29h4.03c.19,0,.39.03.6.08.21.05.42.12.63.22.21.1.41.22.59.37s.35.33.5.54c.15.21.26.45.35.72.08.27.13.58.13.93Z"/>
      <path class="cls-1" d="M129.76,64.9h-1.75v-9.63h1.75v9.63Z"/>
      <path class="cls-1" d="M141.06,62.06c0,.34-.04.65-.13.93-.09.28-.2.52-.35.73-.14.21-.31.39-.5.54-.19.15-.39.27-.6.36s-.42.16-.63.21c-.21.04-.41.07-.6.07h-6.73v-1.75h6.73c.34,0,.6-.1.78-.3.19-.2.28-.46.28-.79,0-.16-.02-.31-.07-.44-.05-.13-.12-.25-.21-.35-.09-.1-.2-.17-.34-.23s-.28-.08-.44-.08h-4.01c-.28,0-.59-.05-.91-.15s-.63-.26-.91-.49c-.28-.22-.51-.52-.7-.88-.19-.36-.28-.81-.28-1.33s.09-.97.28-1.33c.19-.36.42-.65.7-.88.28-.23.58-.39.91-.49.33-.1.63-.15.91-.15h5.94v1.75h-5.94c-.33,0-.59.1-.78.3-.19.2-.28.47-.28.8s.09.6.28.8c.19.19.44.29.78.29h4.03c.19,0,.39.03.6.08.21.05.42.12.63.22.21.1.41.22.59.37s.35.33.5.54c.15.21.26.45.35.72.08.27.13.58.13.93Z"/>
      <path class="cls-1" d="M151.11,57.02h-3.85v7.88h-1.75v-7.88h-3.85v-1.75h9.45v1.75Z"/>
      <path class="cls-1" d="M161.5,64.9h-1.75v-2.36h-6.14v2.36h-1.75v-4.81c0-.7.12-1.35.36-1.94.24-.59.58-1.1,1.01-1.52s.94-.76,1.52-.99c.59-.24,1.23-.36,1.92-.36h3.93c.12,0,.23.02.34.07.11.04.2.11.28.19s.14.17.19.28c.04.11.07.22.07.34v8.75ZM153.62,60.79h6.14v-3.77h-3.07c-.05,0-.17,0-.34.02-.17.02-.37.05-.6.12-.23.06-.46.16-.71.29-.25.13-.48.31-.69.54-.21.23-.38.51-.52.86-.14.34-.2.76-.2,1.25v.7Z"/>
      <path class="cls-1" d="M173.14,64.15c0,.13-.02.24-.07.35-.05.11-.11.2-.19.28-.08.08-.17.14-.28.18-.11.04-.22.07-.34.07-.11,0-.22-.02-.33-.06s-.21-.11-.29-.19l-6.38-6.66v6.78h-1.75v-8.88c0-.18.05-.34.15-.49.1-.15.23-.25.39-.33.17-.07.34-.08.51-.05.17.03.32.12.45.25l6.38,6.65v-6.78h1.75v8.88Z"/>
      <path class="cls-1" d="M183.79,64.9h-6.3c-.16,0-.33-.02-.52-.06s-.37-.1-.55-.18c-.18-.08-.35-.18-.52-.31-.17-.13-.31-.28-.44-.46-.13-.18-.23-.39-.31-.63-.08-.24-.11-.51-.11-.81v-4.73c0-.16.02-.33.06-.52.04-.19.1-.37.18-.55s.19-.35.32-.52c.13-.17.29-.31.47-.44.18-.13.39-.23.63-.31.24-.08.51-.11.81-.11h6.3v1.75h-6.3c-.23,0-.4.06-.52.18s-.18.3-.18.54v4.71c0,.22.06.4.18.52.12.12.3.18.52.18h6.3v1.75Z"/>
      <path class="cls-1" d="M194.14,64.9h-6.3c-.24,0-.51-.04-.79-.13-.29-.08-.55-.22-.8-.42-.24-.19-.45-.45-.61-.76-.16-.31-.24-.69-.24-1.14v-6.3c0-.12.02-.23.07-.34.04-.11.11-.2.18-.28s.17-.14.28-.19c.11-.04.22-.07.35-.07h7.86v1.75h-7v5.43c0,.23.06.4.18.52.12.12.3.18.53.18h6.28v1.75ZM193.36,60.96h-5.51v-1.76h5.51v1.76Z"/>
    </g>
  </g>
</svg>